# xmcd
#
# Track frame offsets: 
#        150
#        12485
#        22946
#        41710
#        63348
#        73223
#        84820
#        102773
#        113103
#        124460
#
# Disc length: 1877 seconds
#
# Revision: 3
# Processed by: cddbd v1.5.2PL0 Copyright (c) Steve Scherf et al.
# Submitted via: ExactAudioCopy v1.1
#
DISCID=8007530a
DTITLE=Alexis Korner's Blues Incorporated - Red Hot From Alex
DYEAR=2003
DGENRE=Blues
TTITLE0=Woke Up This Morning (stereo)
TTITLE1=Skippin' (stereo)
TTITLE2=Herbie's Tune (stereo)
TTITLE3=Stormy Monday (stereo)
TTITLE4=It's Happening (stereo)
TTITLE5=Roberta (stereo)
TTITLE6=Jones (stereo)
TTITLE7=Cabbage Greens (stereo)
TTITLE8=Chicken Shack (stereo)
TTITLE9=Haitian Fight Song (stereo)
EXTD=
EXTT0=
EXTT1=
EXTT2=
EXTT3=
EXTT4=
EXTT5=
EXTT6=
EXTT7=
EXTT8=
EXTT9=
PLAYORDER=
